<?xml version="1.0" encoding="UTF-8" standalone="no"?>
<!-- Created with Inkscape (http://www.inkscape.org/) -->

<svg
   xmlns:dc="http://purl.org/dc/elements/1.1/"
   xmlns:cc="http://creativecommons.org/ns#"
   xmlns:rdf="http://www.w3.org/1999/02/22-rdf-syntax-ns#"
   xmlns:svg="http://www.w3.org/2000/svg"
   xmlns="http://www.w3.org/2000/svg"
   xmlns:sodipodi="http://sodipodi.sourceforge.net/DTD/sodipodi-0.dtd"
   xmlns:inkscape="http://www.inkscape.org/namespaces/inkscape"
   width="1591.7954"
   height="1235.9635"
   id="svg6417"
   version="1.1"
   inkscape:version="0.48.4 r9939"
   sodipodi:docname="New document 29">
  <defs
     id="defs6419" />
  <sodipodi:namedview
     id="base"
     pagecolor="#ffffff"
     bordercolor="#666666"
     borderopacity="1.0"
     inkscape:pageopacity="0.0"
     inkscape:pageshadow="2"
     inkscape:zoom="0.24748737"
     inkscape:cx="1310.6975"
     inkscape:cy="638.94887"
     inkscape:document-units="px"
     inkscape:current-layer="layer1"
     showgrid="false"
     fit-margin-top="0"
     fit-margin-left="0"
     fit-margin-right="0"
     fit-margin-bottom="0"
     inkscape:window-width="1553"
     inkscape:window-height="1179"
     inkscape:window-x="120"
     inkscape:window-y="120"
     inkscape:window-maximized="0" />
  <metadata
     id="metadata6422">
    <rdf:RDF>
      <cc:Work
         rdf:about="">
        <dc:format>image/svg+xml</dc:format>
        <dc:type
           rdf:resource="http://purl.org/dc/dcmitype/StillImage" />
        <dc:title></dc:title>
      </cc:Work>
    </rdf:RDF>
  </metadata>
  <g
     inkscape:label="Layer 1"
     inkscape:groupmode="layer"
     id="layer1"
     transform="translate(258.64827,196.4513)">
    <circle
       id="circle2991"
       style="fill:none;stroke:#000000;stroke-width:0.90000075"
       r="159.22395"
       cy="294.09473"
       cx="329.52783"
       sodipodi:cx="329.52783"
       sodipodi:cy="294.09473"
       sodipodi:rx="159.22395"
       sodipodi:ry="159.22395"
       d="m 488.75179,294.09473 c 0,87.93696 -71.287,159.22395 -159.22396,159.22395 -87.93696,0 -159.22395,-71.28699 -159.22395,-159.22395 0,-87.93696 71.28699,-159.22396 159.22395,-159.22396 87.93696,0 159.22396,71.287 159.22396,159.22396 z"
       transform="translate(539.76108,-1001.5954)" />
    <circle
       id="circle2997"
       style="fill:none;stroke:#000000;stroke-width:0.90000075"
       r="18.377377"
       cy="294.09473"
       cx="329.52783"
       sodipodi:cx="329.52783"
       sodipodi:cy="294.09473"
       sodipodi:rx="18.377377"
       sodipodi:ry="18.377377"
       d="m 347.90521,294.09473 c 0,10.14954 -8.22783,18.37737 -18.37738,18.37737 -10.14954,0 -18.37737,-8.22783 -18.37737,-18.37737 0,-10.14955 8.22783,-18.37738 18.37737,-18.37738 10.14955,0 18.37738,8.22783 18.37738,18.37738 z"
       transform="translate(1057.5344,-867.71235)" />
    <g
       transform="translate(610.40228,-930.95419)"
       id="g6545">
      <polygon
         style="fill:none;stroke:#000000;stroke-width:0.90000075"
         points="310.84396,437.69445 310.84396,446.90706 206.9293,446.90706 206.9293,437.69445 103.91465,437.69445 103.91465,446.90706 0,446.90706 0,357.16565 9.212606,357.16565 9.212606,268.32424 0,268.32424 0,178.58282 9.212606,178.58282 9.212606,89.741412 0,89.741412 0,0 103.91465,0 103.91465,9.212606 206.9293,9.212606 206.9293,0 310.84396,0 310.84396,9.212606 413.85861,9.212606 413.85861,0 517.77326,0 517.77326,89.741412 508.56065,89.741412 508.56065,178.58282 517.77326,178.58282 517.77326,268.32424 508.56065,268.32424 508.56065,357.16565 517.77326,357.16565 517.77326,446.90706 413.85861,446.90706 413.85861,437.69445 "
         id="polygon6547" />
    </g>
    <g
       transform="translate(1128.1756,-930.95419)"
       id="g6549">
      <polygon
         style="fill:none;stroke:#000000;stroke-width:0.90000075"
         points="310.84396,437.69445 310.84396,446.90706 206.9293,446.90706 206.9293,437.69445 103.91465,437.69445 103.91465,446.90706 0,446.90706 0,357.16565 9.212606,357.16565 9.212606,268.32424 0,268.32424 0,178.58282 9.212606,178.58282 9.212606,89.741412 0,89.741412 0,0 103.91465,0 103.91465,9.212606 206.9293,9.212606 206.9293,0 310.84396,0 310.84396,9.212606 413.85861,9.212606 413.85861,0 517.77326,0 517.77326,89.741412 508.56065,89.741412 508.56065,178.58282 517.77326,178.58282 517.77326,268.32424 508.56065,268.32424 508.56065,357.16565 517.77326,357.16565 517.77326,446.90706 413.85861,446.90706 413.85861,437.69445 "
         id="polygon6551" />
    </g>
    <polygon
       id="polygon6555"
       points="413.85861,446.90706 413.85861,437.69445 310.84396,437.69445 310.84396,446.90706 206.9293,446.90706 206.9293,437.69445 103.91465,437.69445 103.91465,446.90706 9.212606,446.90706 9.212606,357.61565 0,357.61565 0,267.87424 9.212606,267.87424 9.212606,179.03282 0,179.03282 0,89.291412 9.212606,89.291412 9.212606,0 103.91465,0 103.91465,9.212606 206.9293,9.212606 206.9293,0 310.84396,0 310.84396,9.212606 413.85861,9.212606 413.85861,0 508.56065,0 508.56065,89.291412 517.77326,89.291412 517.77326,179.03282 508.56065,179.03282 508.56065,267.87424 517.77326,267.87424 517.77326,357.61565 508.56065,357.61565 508.56065,446.90706 "
       style="fill:none;stroke:#000000;stroke-width:0.90000075"
       transform="translate(-258.21077,592.16848)" />
    <polygon
       id="polygon6559"
       points="310.84396,437.69445 310.84396,446.90706 206.9293,446.90706 206.9293,437.69445 103.91465,437.69445 103.91465,446.90706 9.212606,446.90706 9.212606,357.61565 0,357.61565 0,267.87424 9.212606,267.87424 9.212606,179.03282 0,179.03282 0,89.291412 9.212606,89.291412 9.212606,0 103.91465,0 103.91465,9.212606 206.9293,9.212606 206.9293,0 310.84396,0 310.84396,9.212606 413.85861,9.212606 413.85861,0 508.56065,0 508.56065,89.291412 517.77326,89.291412 517.77326,179.03282 508.56065,179.03282 508.56065,267.87424 517.77326,267.87424 517.77326,357.61565 508.56065,357.61565 508.56065,446.90706 413.85861,446.90706 413.85861,437.69445 "
       style="fill:none;stroke:#000000;stroke-width:0.90000075"
       transform="translate(281.78923,592.16848)" />
    <circle
       id="circle3011"
       style="fill:none;stroke:#000000;stroke-width:0.90000075"
       r="168.08223"
       cy="329.52783"
       cx="329.52783"
       sodipodi:cx="329.52783"
       sodipodi:cy="329.52783"
       sodipodi:rx="168.08223"
       sodipodi:ry="168.08223"
       d="m 497.61006,329.52783 c 0,92.82925 -75.25298,168.08223 -168.08223,168.08223 -92.82925,0 -168.08223,-75.25298 -168.08223,-168.08223 0,-92.82925 75.25298,-168.08223 168.08223,-168.08223 92.82925,0 168.08223,75.25298 168.08223,168.08223 z"
       transform="translate(-328.85197,-0.13707143)" />
    <polygon
       id="polygon6563"
       points="414.30861,517.77326 310.39396,517.77326 310.39396,508.56065 207.3793,508.56065 207.3793,517.77326 103.46465,517.77326 103.46465,508.56065 9.212606,508.56065 9.212606,414.30861 0,414.30861 0,310.39396 9.212606,310.39396 9.212606,207.3793 0,207.3793 0,103.46465 9.212606,103.46465 9.212606,9.212606 103.46465,9.212606 103.46465,0 207.3793,0 207.3793,9.212606 310.39396,9.212606 310.39396,0 414.30861,0 414.30861,9.212606 508.56065,9.212606 508.56065,103.46465 517.77326,103.46465 517.77326,207.3793 508.56065,207.3793 508.56065,310.39396 517.77326,310.39396 517.77326,414.30861 508.56065,414.30861 508.56065,508.56065 414.30861,508.56065 "
       style="fill:none;stroke:#000000;stroke-width:0.90000075"
       transform="translate(-258.21077,70.504129)" />
    <polygon
       id="polygon6567"
       points="414.30861,517.77326 310.39396,517.77326 310.39396,508.56065 207.3793,508.56065 207.3793,517.77326 103.46465,517.77326 103.46465,508.56065 9.212606,508.56065 9.212606,414.30861 0,414.30861 0,310.39396 9.212606,310.39396 9.212606,207.3793 0,207.3793 0,103.46465 9.212606,103.46465 9.212606,9.212606 103.46465,9.212606 103.46465,0 207.3793,0 207.3793,9.212606 310.39396,9.212606 310.39396,0 414.30861,0 414.30861,9.212606 508.56065,9.212606 508.56065,103.46465 517.77326,103.46465 517.77326,207.3793 508.56065,207.3793 508.56065,310.39396 517.77326,310.39396 517.77326,414.30861 508.56065,414.30861 508.56065,508.56065 414.30861,508.56065 "
       style="fill:none;stroke:#000000;stroke-width:0.90000075"
       transform="translate(259.56253,70.504129)" />
  </g>
</svg>
